<svg width="211" height="272" viewBox="0 0 211 272" fill="none" xmlns="http://www.w3.org/2000/svg">
<path fill-rule="evenodd" clip-rule="evenodd" d="M75.5791 126.102C89.8186 98.4441 111.041 84.4779 139.246 84.2041C153.212 84.2041 165.945 88.175 177.446 96.1162C199.627 111.725 210.718 137.329 210.718 172.928C210.718 200.311 203.598 222.903 189.358 240.702C173.202 260.966 151.706 271.098 124.87 271.098C100.225 270.824 80.6452 259.87 66.1318 238.237L62.8457 266.99H0V255.899C3.55987 255.899 6.8462 255.626 9.8584 255.078C18.8948 253.161 23.413 246.316 23.4131 234.541V11.0898H0V0H75.5791V126.102ZM119.119 103.921C112 103.921 105.428 106.248 99.4033 110.903C83.5208 123.774 75.5791 148.967 75.5791 186.482C75.5791 200.996 77.0855 213.729 80.0977 224.683C86.3959 248.232 98.4448 260.008 116.244 260.008C141.437 259.734 154.171 232.623 154.444 178.678C154.444 129.387 142.669 104.469 119.119 103.921Z" fill="#CA548E"/>
</svg>
