<svg width="4163" height="623" viewBox="0 0 4163 623" fill="none" xmlns="http://www.w3.org/2000/svg">
<path d="M518.413 51.8418H466.572V103.683H414.73V155.524H362.89V259.207H466.572V207.365H518.413V155.524H570.255V103.683H622.096V518.413H570.255V466.572H518.413V414.73H466.572V362.89H362.89V466.572H414.73V518.413H466.572V570.255H518.413V622.096H103.683V570.255H155.524V518.413H207.365V466.572H259.207V362.89H155.524V414.73H103.683V466.572H51.8418V518.413H0V103.683H51.8418V155.524H103.683V207.365H155.524V259.207H259.207V155.524H207.365V103.683H155.524V51.8418H103.683V0H518.413V51.8418Z" fill="#CA548E"/>
<path fill-rule="evenodd" clip-rule="evenodd" d="M1140.51 51.8418H1244.19V103.683H1296.03V207.365H1347.87V414.73H1296.03V518.413H1244.19V570.255H1140.51V622.096H933.144V570.255H829.461V518.413H777.62V414.73H725.778V207.365H777.62V103.683H829.461V51.8418H933.144V0H1140.51V51.8418ZM881.302 414.73H933.144V466.572H1140.51V414.73H1192.35V362.89H1140.51V414.73H933.144V362.89H881.302V414.73ZM881.302 259.207H984.984V155.524H881.302V259.207ZM1088.67 259.207H1192.35V155.524H1088.67V259.207Z" fill="#CA548E"/>
<path d="M1710.76 570.255H1658.92V622.096H1607.08V570.255H1555.24V518.413H1607.08V466.572H1658.92V414.73H1710.76V570.255Z" fill="#CA548E"/>
<path d="M1969.97 414.73H2021.81V466.572H1969.97V518.413H1918.13V466.572H1866.29V518.413H1918.13V570.255H1866.29V622.096H1814.45V570.255H1762.6V414.73H1814.45V466.572H1866.29V414.73H1814.45V362.89H1969.97V414.73Z" fill="#CA548E"/>
<path d="M2658.63 51.8418H2606.79V103.683H2554.95V155.524H2503.11V259.207H2606.79V207.365H2658.63V155.524H2710.47V103.683H2762.31V518.413H2710.47V466.572H2658.63V414.73H2606.79V362.89H2503.11V466.572H2554.95V518.413H2606.79V570.255H2658.63V622.096H2243.9V570.255H2295.74V518.413H2347.58V466.572H2399.43V362.89H2295.74V414.73H2243.9V466.572H2192.06V518.413H2140.22V103.683H2192.06V155.524H2243.9V207.365H2295.74V259.207H2399.43V155.524H2347.58V103.683H2295.74V51.8418H2243.9V0H2658.63V51.8418Z" fill="#CA548E"/>
<path fill-rule="evenodd" clip-rule="evenodd" d="M3280.73 51.8418H3384.41V103.683H3436.25V207.365H3488.09V414.73H3436.25V518.413H3384.41V570.255H3280.73V622.096H3073.36V570.255H2969.68V518.413H2917.84V414.73H2866V207.365H2917.84V103.683H2969.68V51.8418H3073.36V0H3280.73V51.8418ZM3021.52 414.73H3073.36V466.572H3280.73V414.73H3332.57V362.89H3280.73V414.73H3073.36V362.89H3021.52V414.73ZM3021.52 259.207H3125.2V155.524H3021.52V259.207ZM3228.89 259.207H3332.57V155.524H3228.89V259.207Z" fill="#CA548E"/>
<path d="M3850.98 570.255H3799.14V622.096H3747.3V570.255H3695.46V518.413H3747.3V466.572H3799.14V414.73H3850.98V570.255Z" fill="#CA548E"/>
<path d="M4110.19 414.73H4162.03V466.572H4110.19V518.413H4058.35V466.572H4006.5V518.413H4058.35V570.255H4006.5V622.096H3954.66V570.255H3902.82V414.73H3954.66V466.572H4006.5V414.73H3954.66V362.89H4110.19V414.73Z" fill="#CA548E"/>
<path d="M1658.92 414.73H1607.08V466.572H1555.24V518.413H1503.4V466.572H1451.56V414.73H1503.4V362.89H1658.92V414.73Z" fill="#CA548E"/>
<path d="M3799.14 414.73H3747.3V466.572H3695.46V518.413H3643.62V466.572H3591.78V414.73H3643.62V362.89H3799.14V414.73Z" fill="#CA548E"/>
<path d="M1762.6 362.89H1710.76V311.048H1762.6V362.89Z" fill="#CA548E"/>
<path d="M3902.82 362.89H3850.98V311.048H3902.82V362.89Z" fill="#CA548E"/>
<path d="M1658.92 103.683H1710.76V259.207H1658.92V207.365H1607.08V259.207H1658.92V311.048H1503.4V259.207H1451.56V207.365H1503.4V155.524H1555.24V207.365H1607.08V155.524H1555.24V103.683H1607.08V51.8418H1658.92V103.683Z" fill="#CA548E"/>
<path d="M1969.97 207.365H2021.81V259.207H1969.97V311.048H1814.45V259.207H1866.29V207.365H1918.13V155.524H1969.97V207.365Z" fill="#CA548E"/>
<path d="M3799.14 103.683H3850.98V259.207H3799.14V207.365H3747.3V259.207H3799.14V311.048H3643.62V259.207H3591.78V207.365H3643.62V155.524H3695.46V207.365H3747.3V155.524H3695.46V103.683H3747.3V51.8418H3799.14V103.683Z" fill="#CA548E"/>
<path d="M4110.19 207.365H4162.03V259.207H4110.19V311.048H3954.66V259.207H4006.5V207.365H4058.35V155.524H4110.19V207.365Z" fill="#CA548E"/>
<path d="M1866.29 103.683H1918.13V155.524H1866.29V207.365H1814.45V259.207H1762.6V103.683H1814.45V51.8418H1866.29V103.683Z" fill="#CA548E"/>
<path d="M4006.5 103.683H4058.35V155.524H4006.5V207.365H3954.66V259.207H3902.82V103.683H3954.66V51.8418H4006.5V103.683Z" fill="#CA548E"/>
</svg>
