<svg width="190" height="187" viewBox="0 0 190 187" fill="none" xmlns="http://www.w3.org/2000/svg">
<path fill-rule="evenodd" clip-rule="evenodd" d="M96.5273 0C120.077 0 140.204 6.43545 156.908 19.3057C178.541 36.5573 189.358 60.518 189.358 91.1875C189.358 114.19 182.512 134.454 168.82 151.979C150.473 175.256 125.144 186.893 92.8311 186.894C69.2811 186.894 49.0169 179.774 32.0391 165.534C10.68 147.461 9.90455e-05 122.953 0 92.0098C0 70.103 6.29821 50.934 18.8945 34.5039C36.9677 11.5017 62.8455 3.47548e-05 96.5273 0ZM94.4736 10.6797C84.068 10.6797 75.9898 13.8289 70.2393 20.127C60.9288 30.8066 56.2734 55.3152 56.2734 93.6523C56.2734 119.393 57.9161 138.151 61.2021 149.926C66.1312 167.451 77.0849 176.214 94.0625 176.214C103.647 176.214 111.451 173.338 117.476 167.588C127.881 157.182 133.085 131.99 133.085 92.0098C133.085 67.0906 131.441 48.88 128.155 37.3789C123.226 19.5796 111.999 10.6797 94.4736 10.6797Z" fill="#CA548E"/>
</svg>
