<svg width="211" height="261" viewBox="0 0 211 261" fill="none" xmlns="http://www.w3.org/2000/svg">
<path fill-rule="evenodd" clip-rule="evenodd" d="M140.479 0C154.992 1.60603e-05 167.863 4.24448 179.09 12.7334C199.901 28.3421 210.307 53.5354 210.307 88.3125C210.307 115.148 203.46 137.604 189.769 155.677C173.338 176.488 151.569 186.894 124.459 186.894C102.552 186.346 86.2587 180.048 75.5791 167.999V250.15H96.5273C98.1704 250.15 99.814 250.287 101.457 250.561C105.017 251.108 106.797 254.531 106.797 260.829H0V250.15C3.55987 250.15 6.8462 249.876 9.8584 249.328C18.8949 247.411 23.413 240.566 23.4131 228.791V16.8408H0V6.16113H72.7041L74.7578 45.5938C77.4962 37.9264 81.6034 30.8064 87.0801 24.2344C100.772 8.07811 118.572 0 140.479 0ZM118.708 19.7168C111.041 19.7169 103.922 22.866 97.3496 29.1641C82.5624 43.6774 75.168 68.0488 75.168 102.278C75.168 120.625 77.6335 136.097 82.5625 148.693C89.9561 166.766 101.046 175.804 115.833 175.804C141.026 175.53 153.759 148.419 154.033 94.4736C154.033 45.1832 142.258 20.2645 118.708 19.7168Z" fill="#CA548E"/>
</svg>
